# xmcd
#
# Track frame offsets:
#	150
#	12142
#	21545
#	34191
#	46236
#	59300
#	69708
#	81948
#	95708
#	106582
#	116981
#	129169
#	141288
#	153318
#	167928
#	179869
#	191499
#	204431
#	212788
#	225777
#	239958
#	251928
#	261143
#	276296
#	290722
#
# Disc length: 4071 seconds
#
# Revision: 1
# Processed by: cddbd v1.5.2PL0 Copyright (c) Steve Scherf et al.
# Submitted via: audiograbber 1.83.01
#
DISCID=800fe519
DTITLE=Various Artist - Just For A Day - The Apollo Records Story  [CD3)
DYEAR=2014
DGENRE=Oldie
TTITLE0=Cellos  - Girlie That I Love 
TTITLE1=Mel Albert - Never Let Me Go 
TTITLE2=Solomon Burke - My Heart Is A Chapel
TTITLE3=Champion Jack Dupree - Come Back Baby 
TTITLE4=Opals  - Oh But She Did 
TTITLE5=Keynotes  - Suddenly 
TTITLE6=Sparks Of Rhythm  - Woman, Woman, Woman 
TTITLE7=Screamin' Jay Hawkins - Not Anymore 
TTITLE8=Five Royales  - Courage To Love 
TTITLE9=Delroys  - Bermuda Shorts 
TTITLE10=Wynonie Harris - I Gotta Lyin' Woman 
TTITLE11=Casanovas  - Are You For Real 
TTITLE12=Romeos  - I Beg You Please 
TTITLE13=Billy Austin and The Hearts - The Night Has Come 
TTITLE14=Gentlemen  - Something To Remember You By 
TTITLE15=Night Riders - Doctor Velvet 
TTITLE16=Sunnyland Slim - Bad Times 
TTITLE17=Mike Pedicin - St James Infirmary 
TTITLE18=St Louis Jimmy - Mother's Day 
TTITLE19=Dinah Washington - My Voot Is Really Vout
TTITLE20=Larks   - Little Side Car 
TTITLE21=Smiley Smith - Voodoo Woman 
TTITLE22=Mahalia Jackson - Said He Would 
TTITLE23=Doc Pomus - Blues Without Booze 
TTITLE24=Sparks Of Rhythm  - Hurry Home 
EXTD=
EXTT0=
EXTT1=
EXTT2=
EXTT3=
EXTT4=
EXTT5=
EXTT6=
EXTT7=
EXTT8=
EXTT9=
EXTT10=
EXTT11=
EXTT12=
EXTT13=
EXTT14=
EXTT15=
EXTT16=
EXTT17=
EXTT18=
EXTT19=
EXTT20=
EXTT21=
EXTT22=
EXTT23=
EXTT24=
PLAYORDER=
